<svg xmlns="http://www.w3.org/2000/svg" xmlns:xlink="http://www.w3.org/1999/xlink" version="1.1" height="200" width="200" viewBox="0 0 29 29"><path fill="#f5c9ff" d="M0,0 h21v21H0z"></path><path fill="#8127e1" d="M0 0h7v1H0zM8 0h1v1H8zM11 0h2v1H11zM14,0 h7v1H14zM0 1h1v1H0zM6 1h1v1H6zM10 1h1v1H10zM14 1h1v1H14zM20,1 h1v1H20zM0 2h1v1H0zM2 2h3v1H2zM6 2h1v1H6zM8 2h1v1H8zM12 2h1v1H12zM14 2h1v1H14zM16 2h3v1H16zM20,2 h1v1H20zM0 3h1v1H0zM2 3h3v1H2zM6 3h1v1H6zM11 3h1v1H11zM14 3h1v1H14zM16 3h3v1H16zM20,3 h1v1H20zM0 4h1v1H0zM2 4h3v1H2zM6 4h1v1H6zM8 4h1v1H8zM11 4h1v1H11zM14 4h1v1H14zM16 4h3v1H16zM20,4 h1v1H20zM0 5h1v1H0zM6 5h1v1H6zM11 5h2v1H11zM14 5h1v1H14zM20,5 h1v1H20zM0 6h7v1H0zM8 6h1v1H8zM10 6h1v1H10zM12 6h1v1H12zM14,6 h7v1H14zM8 7h1v1H8zM12 7h1v1H12zM5 8h2v1H5zM9 8h2v1H9zM12 8h1v1H12zM14 8h1v1H14zM16 8h1v1H16zM18 8h1v1H18zM20,8 h1v1H20zM2 9h3v1H2zM7 9h1v1H7zM9 9h1v1H9zM11 9h4v1H11zM16 9h1v1H16zM18 9h1v1H18zM1 10h3v1H1zM5 10h2v1H5zM10 10h4v1H10zM15 10h1v1H15zM17 10h3v1H17zM3 11h3v1H3zM8 11h1v1H8zM10 11h1v1H10zM12 11h2v1H12zM16 11h3v1H16zM20,11 h1v1H20zM1 12h1v1H1zM3 12h2v1H3zM6 12h1v1H6zM10 12h1v1H10zM12 12h1v1H12zM20,12 h1v1H20zM8 13h1v1H8zM10 13h2v1H10zM13 13h2v1H13zM16 13h3v1H16zM20,13 h1v1H20zM0 14h7v1H0zM10 14h3v1H10zM19 14h1v1H19zM0 15h1v1H0zM6 15h1v1H6zM8 15h2v1H8zM11 15h1v1H11zM13 15h3v1H13zM17 15h3v1H17zM0 16h1v1H0zM2 16h3v1H2zM6 16h1v1H6zM9 16h2v1H9zM16 16h1v1H16zM19 16h1v1H19zM0 17h1v1H0zM2 17h3v1H2zM6 17h1v1H6zM10 17h1v1H10zM13 17h1v1H13zM16 17h1v1H16zM0 18h1v1H0zM2 18h3v1H2zM6 18h1v1H6zM9 18h2v1H9zM12 18h1v1H12zM16 18h1v1H16zM18,18 h3v1H18zM0 19h1v1H0zM6 19h1v1H6zM9 19h3v1H9zM13 19h6v1H13zM0 20h7v1H0zM11 20h1v1H11zM13 20h3v1H13zM19 20h1v1H19z"></path></svg>